<?xml version="1.0" standalone="no"?><!DOCTYPE svg PUBLIC "-//W3C//DTD SVG 1.1//EN" "http://www.w3.org/Graphics/SVG/1.1/DTD/svg11.dtd"><svg height="800" node-id="1" sillyvg="true" template-height="800" template-width="800" version="1.1" viewBox="0 0 800 800" width="800" xmlns="http://www.w3.org/2000/svg" xmlns:xlink="http://www.w3.org/1999/xlink"><defs node-id="155"><linearGradient gradientUnits="userSpaceOnUse" id="SVGID_1_" node-id="14" spreadMethod="pad" x1="403.1813" x2="403.1813" y1="158.065" y2="713.5566"><stop offset="0.00000009590021" stop-color="#f4f2fb"></stop><stop offset="1" stop-color="#e1eef5"></stop></linearGradient><linearGradient gradientUnits="userSpaceOnUse" id="SVGID_2_" node-id="18" spreadMethod="pad" x1="510.427" x2="510.427" y1="574.1951" y2="374.5387"><stop offset="0.5247" stop-color="#d0dceb"></stop><stop offset="1" stop-color="#ecf1fb"></stop></linearGradient><linearGradient gradientUnits="userSpaceOnUse" id="SVGID_3_" node-id="23" spreadMethod="pad" x1="118.2631" x2="118.2631" y1="539.4541" y2="402.2795"><stop offset="0.2267" stop-color="#d0dceb"></stop><stop offset="0.7893" stop-color="#ecf1fb"></stop></linearGradient><linearGradient gradientUnits="userSpaceOnUse" id="SVGID_4_" node-id="28" spreadMethod="pad" x1="118.2649" x2="118.2649" y1="417.5113" y2="568.6445"><stop offset="0" stop-color="#ecf1fb"></stop><stop offset="0.818" stop-color="#b6c9dd"></stop></linearGradient><linearGradient gradientUnits="userSpaceOnUse" id="SVGID_5_" node-id="33" spreadMethod="pad" x1="619.3919" x2="619.3919" y1="447.9322" y2="359.6077"><stop offset="0.2267" stop-color="#d0dceb"></stop><stop offset="0.7893" stop-color="#ecf1fb"></stop></linearGradient><linearGradient gradientUnits="userSpaceOnUse" id="SVGID_6_" node-id="38" spreadMethod="pad" x1="619.3931" x2="619.3931" y1="369.4151" y2="466.7274"><stop offset="0" stop-color="#ecf1fb"></stop><stop offset="0.818" stop-color="#b6c9dd"></stop></linearGradient><linearGradient gradientUnits="userSpaceOnUse" id="SVGID_7_" node-id="43" spreadMethod="pad" x1="676.1018" x2="676.1018" y1="543.4785" y2="509.1476"><stop offset="0.2267" stop-color="#d0dceb"></stop><stop offset="0.7893" stop-color="#ecf1fb"></stop></linearGradient><linearGradient gradientUnits="userSpaceOnUse" id="SVGID_8_" node-id="47" spreadMethod="pad" x1="676.1624" x2="676.1624" y1="513.4823" y2="568.7458"><stop offset="0" stop-color="#ecf1fb"></stop><stop offset="0.818" stop-color="#b6c9dd"></stop></linearGradient><linearGradient gradientUnits="userSpaceOnUse" id="SVGID_9_" node-id="51" spreadMethod="pad" x1="465.31" x2="430.5557" y1="85.3256" y2="145.5217"><stop offset="0" stop-color="#ffdb80"></stop><stop offset="1" stop-color="#ffbb24"></stop></linearGradient><linearGradient gradientUnits="userSpaceOnUse" id="SVGID_10_" node-id="55" spreadMethod="pad" x1="422.9728" x2="422.9728" y1="115.7917" y2="173.2457"><stop offset="0" stop-color="#f9fafe"></stop><stop offset="1" stop-color="#e5edf7"></stop></linearGradient><linearGradient gradientUnits="userSpaceOnUse" id="SVGID_11_" node-id="60" spreadMethod="pad" x1="510.6961" x2="258.3597" y1="543.5112" y2="291.1748"><stop offset="0.15" stop-color="#afc5d8"></stop><stop offset="1" stop-color="#cbd7eb"></stop></linearGradient><linearGradient gradientUnits="userSpaceOnUse" id="SVGID_12_" node-id="64" spreadMethod="pad" x1="501.1398" x2="255.287" y1="542.2593" y2="296.4065"><stop offset="0" stop-color="#b6cadc"></stop><stop offset="0.8851" stop-color="#dfe8f9"></stop></linearGradient><linearGradient gradientUnits="userSpaceOnUse" id="SVGID_13_" node-id="69" spreadMethod="pad" x1="429.7183" x2="334.7743" y1="462.772" y2="367.8281"><stop offset="0.15" stop-color="#afc5d8"></stop><stop offset="1" stop-color="#cbd7eb"></stop></linearGradient><linearGradient gradientUnits="userSpaceOnUse" id="SVGID_14_" node-id="75" spreadMethod="pad" x1="641.1667" x2="444.4552" y1="479.1549" y2="282.4435"><stop offset="0.15" stop-color="#afc5d8"></stop><stop offset="1" stop-color="#cbd7eb"></stop></linearGradient><linearGradient gradientUnits="userSpaceOnUse" id="SVGID_15_" node-id="79" spreadMethod="pad" x1="634.1495" x2="443.1247" y1="476.2211" y2="285.1962"><stop offset="0" stop-color="#c1d2e4"></stop><stop offset="1" stop-color="#ebf3ff"></stop></linearGradient><linearGradient gradientUnits="userSpaceOnUse" id="SVGID_16_" node-id="83" spreadMethod="pad" x1="253.8593" x2="253.8593" y1="644.0353" y2="580.5716"><stop offset="0.0746" stop-color="#b4c9db"></stop><stop offset="0.9134" stop-color="#eaeef8"></stop><stop offset="1" stop-color="#ecf0f9"></stop></linearGradient><linearGradient gradientUnits="userSpaceOnUse" id="SVGID_17_" node-id="89" spreadMethod="pad" x1="230.5645" x2="230.5645" y1="442.2731" y2="365.5898"><stop offset="0" stop-color="#4f5c7c"></stop><stop offset="1" stop-color="#274168"></stop></linearGradient><linearGradient gradientUnits="userSpaceOnUse" id="SVGID_18_" node-id="93" spreadMethod="pad" x1="230.7768" x2="230.7768" y1="407.5154" y2="376.5591"><stop offset="0" stop-color="#f4b9a4"></stop><stop offset="0.652" stop-color="#fad1bb"></stop></linearGradient><linearGradient gradientUnits="userSpaceOnUse" id="SVGID_19_" node-id="97" spreadMethod="pad" x1="222.7233" x2="222.7233" y1="551.2274" y2="644.4609"><stop offset="0" stop-color="#f4b9a4"></stop><stop offset="0.652" stop-color="#fad1bb"></stop></linearGradient><linearGradient gradientUnits="userSpaceOnUse" id="SVGID_20_" node-id="101" spreadMethod="pad" x1="182.4186" x2="182.4186" y1="550.3741" y2="605.0728"><stop offset="0" stop-color="#f4b9a4"></stop><stop offset="0.652" stop-color="#fad1bb"></stop></linearGradient><linearGradient gradientUnits="userSpaceOnUse" id="SVGID_21_" node-id="105" spreadMethod="pad" x1="200.8122" x2="200.8122" y1="486.6889" y2="460.3223"><stop offset="0" stop-color="#f4b9a4"></stop><stop offset="0.652" stop-color="#fad1bb"></stop></linearGradient><linearGradient gradientUnits="userSpaceOnUse" id="SVGID_22_" node-id="109" spreadMethod="pad" x1="216.7987" x2="216.7987" y1="569.7571" y2="407.8691"><stop offset="0" stop-color="#fad96e"></stop><stop offset="1" stop-color="#ffb32c"></stop></linearGradient><linearGradient gradientUnits="userSpaceOnUse" id="SVGID_23_" node-id="113" spreadMethod="pad" x1="210.1986" x2="210.1986" y1="467.1511" y2="364.7436"><stop offset="0" stop-color="#4f5c7c"></stop><stop offset="1" stop-color="#274168"></stop></linearGradient><linearGradient gradientUnits="userSpaceOnUse" id="SVGID_24_" node-id="117" spreadMethod="pad" x1="249.7373" x2="249.7373" y1="439.4767" y2="381.1884"><stop offset="0" stop-color="#f4b9a4"></stop><stop offset="0.652" stop-color="#fad1bb"></stop></linearGradient><linearGradient gradientUnits="userSpaceOnUse" id="SVGID_25_" node-id="121" spreadMethod="pad" x1="218.6873" x2="240.304" y1="639.3806" y2="639.3806"><stop offset="0" stop-color="#4673bc"></stop><stop offset="0.652" stop-color="#6a94e0"></stop></linearGradient><linearGradient gradientTransform="matrix(0.5823 0.813 -0.813 0.5823 -2600.4441 2907.0747)" gradientUnits="userSpaceOnUse" id="SVGID_26_" node-id="125" spreadMethod="pad" x1="-288.6967" x2="-267.08" y1="-3577.0688" y2="-3577.0688"><stop offset="0" stop-color="#4673bc"></stop><stop offset="0.652" stop-color="#6a94e0"></stop></linearGradient><linearGradient gradientUnits="userSpaceOnUse" id="SVGID_27_" node-id="129" spreadMethod="pad" x1="532.7397" x2="485.2156" y1="640.8815" y2="593.3574"><stop offset="0.15" stop-color="#9fb6cc"></stop><stop offset="1" stop-color="#bfd0e1"></stop></linearGradient><linearGradient gradientUnits="userSpaceOnUse" id="SVGID_28_" node-id="133" spreadMethod="pad" x1="574.7679" x2="527.4542" y1="629.2977" y2="581.9839"><stop offset="0.15" stop-color="#9fb6cc"></stop><stop offset="1" stop-color="#bfd0e1"></stop></linearGradient><linearGradient gradientUnits="userSpaceOnUse" id="SVGID_29_" node-id="137" spreadMethod="pad" x1="537.0925" x2="516.1661" y1="593.2719" y2="572.3455"><stop offset="0.15" stop-color="#9fb6cc"></stop><stop offset="1" stop-color="#bfd0e1"></stop></linearGradient><linearGradient gradientUnits="userSpaceOnUse" id="SVGID_30_" node-id="141" spreadMethod="pad" x1="558.6074" x2="501.9267" y1="633.327" y2="576.6462"><stop offset="0" stop-color="#b6cadc"></stop><stop offset="0.8851" stop-color="#dfe8f9"></stop></linearGradient></defs><g node-id="435"><g node-id="436"><path d="M 486.44 199.42 C 448.07 229.71 365.70 233.23 305.27 197.20 C 244.84 161.17 133.27 165.82 103.05 232.07 C 72.83 298.32 140.24 363.40 115.83 411.05 C 91.42 458.70 10.07 526.10 65.85 607.45 C 121.63 688.80 192.45 668.07 235.07 659.90 C 319.24 643.77 424.86 775.57 543.69 676.03 C 612.16 618.68 714.13 718.12 753.86 594.67 C 786.64 492.81 668.19 455.17 703.89 386.64 C 741.85 313.76 734.56 227.40 693.43 185.58 C 655.13 146.62 552.68 147.12 486.44 199.42 Z" fill="url(#SVGID_1_)" fill-rule="nonzero" group-id="1,2" node-id="345" stroke="none" target-height="628.95" target-width="776.57" target-x="10.07" target-y="146.62"></path><path d="M 431.58 374.54 L 690.87 374.54 L 610.92 509.36 L 466.03 574.20 L 329.99 550.87 Z" fill="url(#SVGID_2_)" fill-rule="nonzero" group-id="1,2" node-id="347" stroke="none" target-height="199.66" target-width="360.88" target-x="329.99" target-y="374.54"></path><g node-id="439"><path d="M 119.05 402.52 C 119.05 402.52 118.83 401.95 118.53 402.56 C 115.83 408.05 91.38 467.52 89.44 513.42 C 89.44 513.42 85.36 539.79 119.55 539.44 C 148.09 539.15 147.33 514.84 147.23 506.65 C 146.84 473.43 119.05 402.52 119.05 402.52 Z" fill="url(#SVGID_3_)" fill-rule="nonzero" group-id="1,2,5" node-id="351" stroke="none" target-height="137.83997" target-width="62.729996" target-x="85.36" target-y="401.95"></path><g node-id="444"><path d="M 118.26 568.64 C 117.71 568.64 117.26 568.19 117.26 567.64 L 117.26 418.51 C 117.26 417.96 117.71 417.51 118.26 417.51 C 118.81 417.51 119.26 417.96 119.26 418.51 L 119.26 567.64 C 119.26 568.20 118.82 568.64 118.26 568.64 Z" fill="url(#SVGID_4_)" fill-rule="nonzero" group-id="1,2,5,10" node-id="355" stroke="none" target-height="151.13" target-width="2" target-x="117.26" target-y="417.51"></path></g></g><g node-id="440"><path d="M 619.90 359.76 C 619.90 359.76 619.76 359.39 619.57 359.79 C 617.83 363.32 602.09 401.62 600.84 431.17 C 600.84 431.17 598.21 448.15 620.23 447.93 C 638.61 447.75 638.12 432.09 638.05 426.82 C 637.79 405.42 619.90 359.76 619.90 359.76 Z" fill="url(#SVGID_5_)" fill-rule="nonzero" group-id="1,2,6" node-id="361" stroke="none" target-height="88.75998" target-width="40.399963" target-x="598.21" target-y="359.39"></path><g node-id="445"><path d="M 619.39 466.73 C 619.03 466.73 618.75 466.44 618.75 466.09 L 618.75 370.07 C 618.75 369.71 619.04 369.43 619.39 369.43 C 619.75 369.43 620.03 369.72 620.03 370.07 L 620.03 466.09 C 620.04 466.44 619.75 466.73 619.39 466.73 Z" fill="url(#SVGID_6_)" fill-rule="nonzero" group-id="1,2,6,11" node-id="365" stroke="none" target-height="97.30002" target-width="1.289978" target-x="618.75" target-y="369.43"></path></g></g><g node-id="441"><path d="M 693.27 526.31 C 693.27 535.79 685.58 543.48 676.10 543.48 C 666.62 543.48 658.93 535.79 658.93 526.31 C 658.93 516.83 666.62 509.14 676.10 509.14 C 685.58 509.14 693.27 516.83 693.27 526.31 Z" fill="url(#SVGID_7_)" fill-rule="nonzero" group-id="1,2,7" node-id="371" stroke="none" target-height="34.339966" target-width="34.340027" target-x="658.93" target-y="509.14"></path><path d="M 676.16 568.75 C 675.87 568.75 675.63 568.51 675.63 568.22 L 675.63 514.01 C 675.63 513.72 675.87 513.48 676.16 513.48 C 676.45 513.48 676.69 513.72 676.69 514.01 L 676.69 568.22 C 676.69 568.51 676.45 568.75 676.16 568.75 Z" fill="url(#SVGID_8_)" fill-rule="nonzero" group-id="1,2,7" node-id="373" stroke="none" target-height="55.27002" target-width="1.0599976" target-x="675.63" target-y="513.48"></path></g><path d="M 482.68 115.42 C 482.68 134.61 467.12 150.17 447.93 150.17 C 428.74 150.17 413.18 134.61 413.18 115.42 C 413.18 96.23 428.74 80.67 447.93 80.67 C 467.12 80.67 482.68 96.23 482.68 115.42 Z" fill="url(#SVGID_9_)" fill-rule="nonzero" group-id="1,2" node-id="376" stroke="none" target-height="69.5" target-width="69.5" target-x="413.18" target-y="80.67"></path><path d="M 467.71 134.37 L 433.14 134.37 C 430.91 123.76 421.49 115.79 410.21 115.79 C 398.93 115.79 389.52 123.76 387.28 134.37 L 378.23 134.37 C 367.50 134.37 358.79 143.07 358.79 153.81 L 358.79 153.81 C 358.79 164.54 367.49 173.25 378.23 173.25 L 467.70 173.25 C 478.43 173.25 487.14 164.55 487.14 153.81 L 487.14 153.81 C 487.15 143.08 478.44 134.37 467.71 134.37 Z" fill="url(#SVGID_10_)" fill-rule="nonzero" group-id="1,2" node-id="378" stroke="none" target-height="57.46" target-width="128.35999" target-x="358.79" target-y="115.79"></path></g><g node-id="437"><path d="M 562.96 417.34 C 562.96 515.88 483.07 595.77 384.53 595.77 C 285.99 595.77 206.10 515.88 206.10 417.34 C 206.10 318.80 285.99 238.91 384.53 238.91 C 483.07 238.91 562.96 318.80 562.96 417.34 Z" fill="url(#SVGID_11_)" fill-rule="nonzero" group-id="1,3" node-id="383" stroke="none" target-height="356.86002" target-width="356.86002" target-x="206.1" target-y="238.91"></path><path d="M 552.05 419.33 C 552.05 515.34 474.22 593.17 378.21 593.17 C 282.20 593.17 204.37 515.34 204.37 419.33 C 204.37 323.32 282.20 245.49 378.21 245.49 C 474.22 245.49 552.05 323.32 552.05 419.33 Z" fill="url(#SVGID_12_)" fill-rule="nonzero" group-id="1,3" node-id="385" stroke="none" target-height="347.68" target-width="347.68" target-x="204.37" target-y="245.49"></path><g node-id="442"><path d="M 382.25 482.47 C 345.21 482.47 315.08 452.34 315.08 415.30 C 315.08 378.26 345.21 348.13 382.25 348.13 C 419.29 348.13 449.42 378.26 449.42 415.30 C 449.42 452.34 419.28 482.47 382.25 482.47 Z M 382.25 377.58 C 361.45 377.58 344.53 394.50 344.53 415.30 C 344.53 436.10 361.45 453.02 382.25 453.02 C 403.05 453.02 419.97 436.10 419.97 415.30 C 419.97 394.50 403.05 377.58 382.25 377.58 Z" fill="url(#SVGID_13_)" fill-rule="nonzero" group-id="1,3,8" node-id="389" stroke="none" target-height="134.34" target-width="134.34003" target-x="315.08" target-y="348.13"></path></g><g node-id="443"><path d="M 378.21 482.47 C 343.40 482.47 315.08 454.15 315.08 419.34 C 315.08 384.53 343.40 356.21 378.21 356.21 C 413.02 356.21 441.34 384.53 441.34 419.34 C 441.34 454.15 413.03 482.47 378.21 482.47 Z M 378.21 383.88 C 358.66 383.88 342.75 399.79 342.75 419.34 C 342.75 438.89 358.66 454.80 378.21 454.80 C 397.76 454.80 413.67 438.89 413.67 419.34 C 413.67 399.79 397.76 383.88 378.21 383.88 Z" fill="#ffffff" fill-rule="nonzero" group-id="1,3,9" node-id="394" stroke="none" target-height="126.26001" target-width="126.26001" target-x="315.08" target-y="356.21"></path></g><path d="M 653.00 312.50 C 636.66 284.12 593.33 233.01 492.30 236.94 C 486.77 237.15 484.42 243.86 488.65 247.31 C 519.41 272.40 583.45 340.23 588.23 439.55 C 564.89 429.03 527.99 433.44 508.01 449.68 C 488.02 465.92 477.83 490.47 490.70 512.43 C 503.58 534.38 556.23 555.88 601.71 518.28 C 644.76 482.68 629.93 375.84 575.31 304.70 C 572.01 300.40 575.91 294.39 581.34 295.43 C 605.85 300.11 626.08 312.62 643.21 322.96 C 649.91 327.82 657.12 319.75 653.00 312.50 Z" fill="url(#SVGID_14_)" fill-rule="nonzero" group-id="1,3" node-id="397" stroke="none" target-height="322.87" target-width="179.29001" target-x="477.83" target-y="233.01"></path><path d="M 643.62 313.50 C 628.10 285.68 586.97 235.58 491.07 239.43 C 485.82 239.64 483.59 246.21 487.61 249.60 C 516.81 274.20 577.60 340.69 582.14 438.05 C 559.98 427.73 524.96 432.06 505.98 447.98 C 487.00 463.90 477.33 487.97 489.55 509.49 C 501.78 531.01 551.76 552.09 594.93 515.22 C 635.80 480.32 621.72 375.59 569.87 305.85 C 566.74 301.64 570.44 295.74 575.60 296.76 C 598.87 301.35 620.54 309.82 636.80 319.96 C 641.07 322.61 646.06 317.89 643.62 313.50 Z" fill="url(#SVGID_15_)" fill-rule="nonzero" group-id="1,3" node-id="399" stroke="none" target-height="316.51" target-width="168.73001" target-x="477.33" target-y="235.58"></path></g><path d="M 218.70 637.68 L 289.02 580.57 L 240.30 644.04 Z" fill="url(#SVGID_16_)" fill-rule="nonzero" group-id="1" node-id="402" stroke="none" target-height="63.46997" target-width="70.31999" target-x="218.7" target-y="580.57"></path><path d="M 223.34 365.67 C 223.34 365.67 233.75 364.36 237.29 372.19 C 240.83 380.02 234.06 383.31 234.06 383.31 L 237.55 398.57 C 237.55 398.57 243.66 401.85 242.10 416.20 C 240.53 430.55 225.07 442.27 225.07 442.27 L 218.80 375.98 L 223.34 365.67 Z" fill="url(#SVGID_17_)" fill-rule="nonzero" group-id="1,4" node-id="406" stroke="none" target-height="77.91" target-width="24.86" target-x="218.8" target-y="364.36"></path><path d="M 233.29 376.56 C 233.29 376.56 245.23 401.62 238.44 405.50 C 231.65 409.38 228.29 406.49 228.29 406.49 L 221.02 384.87 L 233.29 376.56 Z" fill="url(#SVGID_18_)" fill-rule="nonzero" group-id="1,4" node-id="408" stroke="none" target-height="32.820007" target-width="24.209991" target-x="221.02" target-y="376.56"></path><path d="M 229.63 559.13 C 229.63 559.13 227.06 630.69 227.32 633.23 C 227.58 635.77 235.16 642.25 235.16 642.25 L 230.60 644.46 L 221.34 636.76 C 221.34 636.76 207.85 559.43 210.66 553.05 C 213.48 546.66 229.63 559.13 229.63 559.13 Z" fill="url(#SVGID_19_)" fill-rule="nonzero" group-id="1,4" node-id="410" stroke="none" target-height="97.80005" target-width="27.309998" target-x="207.85" target-y="546.66"></path><path d="M 200.03 557.35 C 200.03 557.35 203.89 564.03 195.87 567.15 C 187.85 570.27 144.79 588.16 144.79 588.16 L 142.06 601.41 C 142.06 601.41 147.31 606.11 147.06 604.86 C 146.01 599.75 148.27 593.26 149.88 592.93 C 170.26 588.71 215.79 580.01 220.82 572.04 C 227.65 561.20 214.44 550.37 214.44 550.37 L 200.03 557.35 Z" fill="url(#SVGID_20_)" fill-rule="nonzero" group-id="1,4" node-id="412" stroke="none" target-height="55.73999" target-width="85.59" target-x="142.06" target-y="550.37"></path><path d="M 188.57 460.32 C 188.57 460.32 191.02 467.72 208.32 486.69 C 213.17 481.79 213.06 480.59 213.06 480.59 L 200.66 461.10 L 188.57 460.32 Z" fill="url(#SVGID_21_)" fill-rule="nonzero" group-id="1,4" node-id="414" stroke="none" target-height="26.369995" target-width="24.59999" target-x="188.57" target-y="460.32"></path><path d="M 208.05 410.00 C 208.05 410.00 196.03 428.70 208.50 454.75 C 212.51 462.10 212.58 470.26 205.68 482.88 C 198.35 496.28 199.59 510.01 198.93 522.47 C 198.26 534.94 195.81 554.98 186.02 555.42 C 190.92 563.21 210.73 572.34 237.60 569.08 C 235.23 564.33 240.36 531.56 239.76 513.60 C 239.17 495.64 236.97 489.76 239.76 472.34 C 242.18 457.26 242.20 450.67 242.20 450.67 C 242.20 450.67 253.18 441.62 243.83 427.96 C 234.48 414.30 222.74 403.02 208.05 410.00 Z" fill="url(#SVGID_22_)" fill-rule="nonzero" group-id="1,4" node-id="416" stroke="none" target-height="169.32004" target-width="67.15999" target-x="186.02" target-y="403.02"></path><path d="M 235.81 372.59 C 235.81 372.59 236.69 380.16 228.68 388.18 C 236.93 401.98 237.81 415.49 227.05 422.62 C 216.29 429.75 212.92 419.06 212.92 419.06 C 212.92 419.06 206.92 431.08 210.79 437.47 C 214.67 443.85 219.17 458.84 219.29 464.93 C 208.53 469.83 190.40 467.60 185.40 448.90 C 184.40 443.41 184.04 438.68 185.68 433.06 C 187.32 427.44 187.98 427.10 186.20 420.76 C 184.42 414.41 181.65 402.89 193.78 389.98 C 193.40 376.92 201.78 367.57 216.67 369.35 C 220.80 363.09 234.57 362.35 235.81 372.59 Z" fill="url(#SVGID_23_)" fill-rule="nonzero" group-id="1,4" node-id="418" stroke="none" target-height="107.47998" target-width="56.160004" target-x="181.65" target-y="362.35"></path><path d="M 270.50 383.96 C 270.50 383.96 263.74 386.69 262.94 390.31 C 262.78 391.05 262.62 395.42 261.88 398.78 C 260.08 406.96 257.35 419.94 256.69 423.02 C 255.77 427.37 252.72 427.17 249.71 426.99 C 245.82 426.76 234.86 424.36 226.52 426.95 C 219.69 429.10 220.11 440.43 232.69 439.41 C 242.35 438.62 264.46 439.24 265.30 430.63 C 266.14 422.02 267.35 400.03 267.35 400.03 C 267.35 400.03 271.59 394.71 271.23 393.24 C 270.87 391.76 272.29 391.72 272.15 390.61 C 272.01 389.50 272.56 389.11 272.00 388.11 C 270.77 385.88 278.47 382.65 277.20 381.29 C 276.57 380.60 270.50 383.96 270.50 383.96 Z" fill="url(#SVGID_24_)" fill-rule="nonzero" group-id="1,4" node-id="420" stroke="none" target-height="59.829987" target-width="58.78" target-x="219.69" target-y="380.6"></path><path d="M 220.37 632.42 C 220.37 632.42 218.55 635.20 218.70 637.68 C 218.92 638.74 219.83 638.72 220.10 640.46 C 220.37 642.19 220.44 646.38 220.44 646.38 L 221.35 646.38 C 221.35 646.38 221.35 641.67 221.42 641.08 C 221.49 640.49 221.92 639.52 223.05 640.34 C 224.18 641.16 226.78 643.57 227.54 644.51 C 228.30 645.45 229.56 646.46 232.12 646.24 C 234.68 646.02 240.55 645.08 240.31 644.04 C 240.07 643.00 236.66 641.57 234.74 641.46 C 233.94 641.86 231.55 643.00 229.33 641.16 C 227.11 639.32 221.85 633.83 221.50 633.39 C 221.14 632.94 220.48 632.23 220.37 632.42 Z" fill="url(#SVGID_25_)" fill-rule="nonzero" group-id="1,4" node-id="422" stroke="none" target-height="14.2300415" target-width="22" target-x="218.55" target-y="632.23"></path><path d="M 146.21 586.82 C 146.21 586.82 142.89 586.96 140.96 588.52 C 140.23 589.31 140.77 590.04 139.52 591.27 C 138.27 592.50 134.90 595.00 134.90 595.00 L 135.43 595.74 C 135.43 595.74 139.26 593.00 139.78 592.71 C 140.30 592.42 141.35 592.21 141.33 593.61 C 141.31 595.01 140.88 598.53 140.55 599.69 C 140.22 600.85 140.14 602.47 141.81 604.42 C 143.48 606.37 147.66 610.60 148.37 609.80 C 149.08 609.00 148.25 605.39 147.23 603.77 C 146.44 603.36 144.12 602.07 144.32 599.20 C 144.52 596.32 145.93 588.85 146.08 588.31 C 146.23 587.76 146.43 586.81 146.21 586.82 Z" fill="url(#SVGID_26_)" fill-rule="nonzero" group-id="1,4" node-id="424" stroke="none" target-height="23.789978" target-width="14.180008" target-x="134.9" target-y="586.81"></path><path d="M 500.62 582.86 L 496.09 582.47 L 496.09 594.68 C 496.09 595.28 496.33 595.85 496.75 596.27 L 516.74 616.26 L 501.61 626.36 L 501.61 637.20 C 501.61 638.22 502.29 639.12 503.29 639.37 C 508.65 640.75 525.79 644.08 539.10 634.47 C 539.70 634.04 540.03 633.32 540.00 632.58 C 539.68 623.35 539.40 619.15 539.40 619.15 L 505.14 588.59 L 500.62 582.86 Z" fill="url(#SVGID_27_)" fill-rule="nonzero" group-id="1" node-id="427" stroke="none" target-height="61.610046" target-width="43.940033" target-x="496.09" target-y="582.47"></path><path d="M 520.28 604.45 L 553.80 592.85 L 566.39 604.72 L 545.79 611.68 L 545.79 623.23 C 545.79 625.11 547.15 626.71 549.01 626.99 C 555.82 628.03 571.81 629.57 580.92 623.06 C 581.95 622.33 582.57 621.15 582.55 619.89 C 582.49 613.08 582.10 606.98 582.10 606.98 L 553.79 582.80 L 513.21 596.22 L 520.28 604.45 Z" fill="url(#SVGID_28_)" fill-rule="nonzero" group-id="1" node-id="429" stroke="none" target-height="46.77002" target-width="69.359985" target-x="513.21" target-y="582.8"></path><path d="M 510.18 592.97 L 542.70 583.64 L 547.06 582.48 L 550.65 579.72 L 542.53 572.15 L 502.61 585.90 Z" fill="url(#SVGID_29_)" fill-rule="nonzero" group-id="1" node-id="431" stroke="none" target-height="20.819946" target-width="48.04004" target-x="502.61" target-y="572.15"></path><path d="M 580.68 604.34 C 578.89 602.70 541.70 569.11 541.70 569.11 L 496.09 582.47 L 527.67 614.33 C 527.67 614.33 522.20 613.72 515.19 615.38 C 508.18 617.04 501.11 621.79 501.61 626.37 C 502.11 630.95 513.54 634.10 526.79 630.79 C 540.04 627.48 539.93 619.53 538.88 618.31 C 538.23 617.56 525.72 605.64 516.30 596.69 L 554.06 585.08 C 560.40 591.00 567.98 597.96 571.96 601.13 C 568.59 601.02 561.91 601.52 556.56 602.57 C 551.20 603.62 543.31 608.09 546.51 613.12 C 549.71 618.14 560.15 619.08 572.07 615.72 C 584.00 612.35 583.15 606.60 580.68 604.34 Z M 510.26 590.96 C 507.63 588.46 505.92 586.84 505.92 586.84 L 543.52 575.13 C 543.52 575.13 545.36 576.89 548.13 579.51 L 510.26 590.96 Z" fill="url(#SVGID_30_)" fill-rule="nonzero" group-id="1" node-id="433" stroke="none" target-height="64.98999" target-width="87.91" target-x="496.09" target-y="569.11"></path></g></svg>